# xmcd CD database file
#
# Track frame offsets:
#	150
#	16698
#	40497
#	61292
#	77412
#	97146
#	118185
#	133195
#	152816
#	169899
#
# Disc length: 2686 seconds
#
# Revision: 0
# Processed by: cddbd v1.5.2PL0 Copyright (c) Steve Scherf et al.
# Submitted via: NeoAudio 9.9.9
#
DISCID=810a7c0a
DTITLE=Stan Getz - Communications 72
DYEAR=2007
DGENRE=Jazz
TTITLE0=Communications 72
TTITLE1=Outhouse blues
TTITLE2=Now you've gon
TTITLE3=Back to Bach
TTITLE4=Nursery rhymes for all God's children
TTITLE5=Soul Dance
TTITLE6=Redemption
TTITLE7=Flight
TTITLE8=Moods of the wanderer
TTITLE9=Bonjour tristesse
EXTD=YEAR: 2007
EXTT0=
EXTT1=
EXTT2=
EXTT3=
EXTT4=
EXTT5=
EXTT6=
EXTT7=
EXTT8=
EXTT9=
PLAYORDER=
